<svg width="1298" height="1000" viewBox="0 0 1298 1000" fill="none" xmlns="http://www.w3.org/2000/svg">
<path d="M224 500C224 561.856 173.856 612 112 612C50.1441 612 0 561.856 0 500C0 438.144 50.1441 388 112 388C173.856 388 224 438.144 224 500Z" fill="#D9D9D9"/>
<path d="M496 500C496 561.856 445.856 612 384 612C322.144 612 272 561.856 272 500C272 438.144 322.144 388 384 388C445.856 388 496 438.144 496 500Z" fill="#D9D9D9"/>
<path d="M768 500C768 561.856 717.856 612 656 612C594.144 612 544 561.856 544 500C544 438.144 594.144 388 656 388C717.856 388 768 438.144 768 500Z" fill="#D9D9D9"/>
<path d="M1023 514C1023 575.856 972.856 626 911 626C849.144 626 799 575.856 799 514C799 452.144 849.144 402 911 402C972.856 402 1023 452.144 1023 514Z" fill="#D9D9D9"/>
<path d="M1285 500C1285 561.856 1234.86 612 1173 612C1111.14 612 1061 561.856 1061 500C1061 438.144 1111.14 388 1173 388C1234.86 388 1285 438.144 1285 500Z" fill="#D9D9D9"/>
<path d="M630.563 500.979C630.563 529.938 630.875 532.118 636.791 532.118C664.193 532.118 677.894 493.194 656.409 476.068C652.049 472.642 644.264 469.84 639.593 469.84H630.563V500.979Z" fill="#DF3341"/>
<path d="M366.194 475.129C352.493 486.651 352.804 514.365 366.506 524.329C370.554 526.82 379.273 529 386.435 529C397.333 529 401.07 527.443 407.609 519.347C425.358 498.172 413.214 469.836 386.123 469.836C378.027 469.836 370.242 472.016 366.194 475.129Z" fill="#DF3341"/>
<path d="M620.289 3.06657C574.826 13.6538 538.705 53.5118 530.92 101.466C526.561 127.934 526.872 877.45 531.232 901.427C548.669 996.401 665.441 1033.15 733.324 964.951C752.63 945.956 763.84 922.291 767.888 893.643C769.756 881.187 770.379 717.084 769.756 485.099C768.822 67.8358 769.756 92.1242 752.941 60.3624C729.276 15.8336 671.669 -9.07765 620.289 3.06657ZM671.669 446.798C690.352 459.876 700.628 479.182 700.316 500.98C700.005 521.22 694.089 533.676 679.142 547.065C665.129 559.21 650.805 563.258 620.601 563.258H596.312V434.965L627.451 436.21C655.788 437.145 659.524 438.079 671.669 446.798Z" fill="#DF3341"/>
<path d="M359.653 136.963C312.633 146.305 274.021 186.474 266.236 235.051C261.876 260.585 262.188 495.062 266.547 518.416C276.512 573.844 320.729 612.767 376.779 615.57C420.374 617.75 457.118 600.623 481.095 566.993C503.515 535.854 503.827 533.674 505.384 391.68C506.006 316.012 505.072 256.225 503.204 242.524C495.73 187.72 457.741 146.305 406.361 136.652C387.678 133.226 379.271 133.226 359.653 136.963ZM408.853 440.568C451.202 458.006 462.1 510.943 430.339 542.704C418.194 554.849 399.822 563.256 385.81 563.256C363.39 563.256 337.856 546.13 328.203 524.332C305.471 474.51 358.407 419.394 408.853 440.568Z" fill="#DF3341"/>
<path d="M882.796 381.093C836.088 394.172 802.769 431.85 795.296 480.115C793.427 492.571 792.493 552.046 793.116 632.385C794.05 760.678 794.362 764.415 801.212 781.852C810.865 805.83 826.123 824.824 846.675 838.526C868.472 853.161 888.09 859.077 914.247 859.077C964.692 859.077 1011.09 825.758 1028.22 777.182C1033.2 762.546 1033.82 747.6 1033.82 620.864C1033.82 470.774 1033.2 464.857 1017.63 436.521C1006.73 417.526 979.327 393.549 959.087 386.076C935.421 377.045 904.282 375.177 882.796 381.093ZM962.201 462.055L926.702 463.612C898.055 464.857 890.581 466.103 888.09 470.462C885.599 474.199 885.91 477.001 888.713 480.427C891.827 484.163 900.546 485.409 927.325 486.032L962.201 486.966V511.877L926.702 513.434C898.055 514.68 890.581 515.925 888.09 520.285C885.599 524.021 885.91 526.824 888.713 530.249C892.138 534.297 899.923 535.231 928.571 535.231H964.069L963.135 548.31L962.201 561.7L927.325 562.634C886.844 563.568 873.766 559.831 864.113 543.95C856.951 532.117 856.017 518.416 862.245 506.895C865.67 500.044 865.67 497.553 862.245 491.325C856.64 481.049 856.951 463.3 862.867 454.581C874.389 438.389 884.353 435.587 924.834 436.209L962.201 437.143V462.055Z" fill="#DF3341"/>
<path d="M82.5171 384.832C12.4543 410.055 -18.9961 484.477 11.8315 552.049C33.6289 599.38 93.7272 628.339 145.107 616.195C168.772 610.59 183.719 602.182 202.714 584.745C224.822 563.57 236.033 538.347 237.589 506.274C240.392 454.272 215.792 412.546 169.706 390.748C153.203 382.964 145.107 381.095 122.998 380.473C104.626 379.85 92.1702 381.095 82.5171 384.832ZM156.628 443.685C165.658 448.044 172.82 452.715 172.82 453.961C172.82 455.206 168.149 460.811 162.233 466.416C153.203 475.135 150.712 476.069 145.418 473.267C124.866 462.368 98.0866 477.004 98.0866 499.424C98.0866 521.844 124.866 536.479 145.418 525.58C150.712 522.778 153.203 523.712 162.544 532.742L173.132 543.018L165.347 549.869C156.628 557.342 138.879 563.259 126.112 563.259C117.081 563.259 92.793 552.671 84.6969 545.198C66.0134 528.383 60.7198 493.819 72.5526 470.776C89.0563 439.014 124.243 427.493 156.628 443.685Z" fill="#DF3341"/>
<path d="M1153.7 382.96C1107.3 391.991 1068.07 433.406 1060.59 481.671C1052.19 533.673 1080.52 587.232 1128.17 609.341C1143.73 616.814 1149.65 617.749 1178.61 617.749C1207.57 617.749 1213.49 616.814 1229.06 609.341C1304.1 574.154 1321.23 470.772 1261.44 414.411C1230.92 385.763 1194.49 374.864 1153.7 382.96ZM1213.18 442.747C1219.09 446.795 1225.63 454.892 1228.12 461.742C1232.17 472.329 1232.17 475.443 1228.12 486.653C1224.07 497.863 1224.07 501.289 1227.81 510.319C1233.42 524.332 1230.3 539.278 1218.78 550.488C1207.26 562.01 1198.23 563.878 1158.37 562.633L1127.23 561.698L1126.3 548.309L1125.36 535.23H1159.62C1186.4 535.23 1194.8 534.296 1198.54 530.248C1202.28 526.511 1202.59 524.02 1200.41 519.349C1197.29 514.056 1193.56 513.433 1161.48 513.433H1125.67V485.408H1161.48C1192.31 485.408 1197.61 484.785 1200.1 479.803C1201.96 476.377 1201.96 472.329 1200.1 468.904C1197.29 464.233 1192 463.61 1161.48 463.61H1125.67V435.585H1164.29C1198.85 435.585 1203.52 436.208 1213.18 442.747Z" fill="#DF3341"/>
</svg>
