<svg width="132" height="28" viewBox="0 0 132 28" fill="none" xmlns="http://www.w3.org/2000/svg">
<path d="M38.5548 10.9712C39.7333 10.9151 40.8965 11.2561 41.8581 11.9396C42.8197 12.6231 43.5241 13.6095 43.8584 14.7409H47.9141C46.9175 10.2346 43.3385 7.40079 38.5548 7.40079C37.2181 7.3908 35.8932 7.65077 34.6594 8.1651C33.4256 8.67942 32.3083 9.43752 31.3744 10.394C30.4406 11.3505 29.7095 12.4856 29.2249 13.7314C28.7403 14.9772 28.5122 16.308 28.5542 17.644C28.5152 18.9724 28.7465 20.2948 29.2341 21.531C29.7216 22.7672 30.4552 23.8916 31.3904 24.8357C32.3257 25.7798 33.4429 26.524 34.6745 27.0233C35.906 27.5225 37.2262 27.7664 38.5548 27.74C40.7255 27.7976 42.8482 27.096 44.5568 25.756C46.2654 24.416 47.4528 22.5217 47.9141 20.3998H43.8584C43.5071 21.521 42.7985 22.4964 41.8409 23.1771C40.8832 23.8577 39.7292 24.2063 38.5548 24.1696C34.8111 24.1696 32.4886 21.4831 32.4886 17.644C32.4886 13.805 34.8111 10.9625 38.5548 10.9625" fill="#14234B"/>
<path d="M55.3323 9.61055H55.1504L54.9337 7.66937H51.5366V27.8092H55.3237V15.0702C55.3237 12.3837 57.3862 10.9191 60.1073 10.9191C60.3451 10.9009 60.5842 10.9155 60.8179 10.9624V7.27071C60.5849 7.21773 60.3462 7.19445 60.1073 7.20139C59.1821 7.22147 58.2731 7.44824 57.4469 7.8651C56.6207 8.28195 55.8982 8.87832 55.3323 9.61055Z" fill="#14234B"/>
<path d="M95.8893 7.21021C94.7251 7.16054 93.563 7.34851 92.4738 7.76271C91.3847 8.17691 90.3914 8.80865 89.5544 9.61937H89.3724L89.1471 7.67816H85.75V27.818H89.5371V15.1483C89.5371 12.3318 92.0762 10.8153 95.196 10.8153C97.8825 10.8153 99.7803 12.1585 99.7803 14.949V27.7834H103.567V14.741C103.567 9.1774 99.6417 7.20154 95.872 7.20154" fill="#14234B"/>
<path d="M112.233 7.6781H108.446V27.818H112.233V7.6781Z" fill="#14234B"/>
<path d="M71.9189 24.1002C68.1839 24.1002 65.766 21.3531 65.766 17.5661C65.766 13.779 68.1839 10.9625 71.9189 10.9625C75.654 10.9625 78.0805 13.779 78.0805 17.5661C78.0805 21.3531 75.6626 24.1002 71.9189 24.1002ZM71.9189 7.40078C69.9035 7.38533 67.9288 7.96888 66.2455 9.07737C64.5622 10.1859 63.246 11.7694 62.464 13.627C61.682 15.4846 61.4694 17.5327 61.8531 19.5113C62.2368 21.49 63.1995 23.3101 64.6192 24.7407C66.0389 26.1714 67.8516 27.1482 69.8272 27.5471C71.8029 27.946 73.8525 27.7491 75.7161 26.9814C77.5797 26.2137 79.1733 24.9098 80.2947 23.2351C81.4161 21.5603 82.0148 19.5902 82.0148 17.5747C82.0502 16.2356 81.8138 14.9033 81.32 13.6581C80.8261 12.4129 80.0851 11.2806 79.1415 10.3298C78.1979 9.37895 77.0715 8.62921 75.8301 8.12579C74.5888 7.62237 73.2582 7.37573 71.9189 7.40078Z" fill="#14234B"/>
<path d="M124.426 15.5816C120.691 14.767 120.839 13.8484 120.839 12.9818C120.839 11.9939 121.948 10.746 123.759 10.746C125.284 10.746 126.87 11.5 126.87 14.0478H130.51C130.64 9.9314 127.91 7.40088 123.759 7.40088C120.059 7.40088 117.052 10.0007 117.052 13.1291C117.052 17.1068 120.223 18.3287 123.646 19.1C127.286 19.8973 127.59 21.0326 127.59 21.8298C127.59 23.3551 126.047 24.655 123.889 24.655C123.372 24.6744 122.856 24.5869 122.374 24.3978C121.892 24.2087 121.454 23.9221 121.088 23.556C120.722 23.1899 120.436 22.7522 120.247 22.2703C120.058 21.7883 119.97 21.2726 119.989 20.7553H116.35C116.124 25.3483 119.452 28.0001 123.898 28.0001C128.127 28.0001 131.455 25.2876 131.455 21.6825C131.455 17.6008 127.832 16.2922 124.426 15.547" fill="#14234B"/>
<path d="M7.8601 19.0826L9.03002 16.4828H19.4986L20.6685 19.0826H7.8601ZM14.1863 4.74897H14.3509L14.5416 5.26029L18.0947 13.363H10.4426L14.0043 5.26029L14.1863 4.74897ZM12.5311 0L0 27.8179H3.99505L6.44753 22.2024H22.0464L24.4989 27.8179H28.4939L15.9715 0H12.5311Z" fill="#14234B"/>
</svg>
