<svg xmlns="http://www.w3.org/2000/svg" viewBox="0 0 151.68 32.35"><title>Acronis logo</title><path d="M480.64,508.48a6.08,6.08,0,0,1,6.12,4.35h4.68c-1.15-5.2-5.28-8.47-10.8-8.47a11.46,11.46,0,0,0-11.54,11.82,11.32,11.32,0,0,0,11.54,11.65,10.76,10.76,0,0,0,10.8-8.47h-4.68a6.21,6.21,0,0,1-6.12,4.35c-4.32,0-7-3.1-7-7.53s2.68-7.71,7-7.71" transform="translate(-436.16 -495.82)" style="fill:#14234b"/><path d="M500,506.91h-.21l-.25-2.24h-3.92v23.24h4.37V513.21c0-3.1,2.38-4.79,5.52-4.79a3,3,0,0,1,.82.05v-4.26a3.27,3.27,0,0,0-.82-.08,7.16,7.16,0,0,0-5.51,2.78" transform="translate(-436.16 -495.82)" style="fill:#14234b"/><path d="M546.8,504.14a9.9,9.9,0,0,0-7.31,2.78h-.21l-.26-2.24H535.1v23.24h4.37V513.3c0-3.25,2.93-5,6.53-5,3.1,0,5.29,1.55,5.29,4.77v14.81h4.37V512.83c0-6.42-4.53-8.7-8.88-8.7" transform="translate(-436.16 -495.82)" style="fill:#14234b"/><rect x="125.13" y="8.86" width="4.37" height="23.24" style="fill:#14234b"/><path d="M519.14,523.63c-4.31,0-7.1-3.17-7.1-7.54s2.79-7.62,7.1-7.62,7.11,3.25,7.11,7.62-2.79,7.54-7.11,7.54m0-19.27a11.74,11.74,0,1,0,11.65,11.74,11.44,11.44,0,0,0-11.65-11.74" transform="translate(-436.16 -495.82)" style="fill:#14234b"/><path d="M579.73,513.8c-4.31-.94-4.14-2-4.14-3,0-1.14,1.28-2.58,3.37-2.58,1.76,0,3.59.87,3.59,3.81h4.2c.15-4.75-3-7.67-7.79-7.67-4.27,0-7.74,3-7.74,6.61,0,4.59,3.66,6,7.61,6.89,4.2.92,4.55,2.23,4.55,3.15,0,1.76-1.78,3.26-4.27,3.26a4.34,4.34,0,0,1-4.5-4.5h-4.2c-.26,5.3,3.58,8.36,8.71,8.36,4.88,0,8.72-3.13,8.72-7.29,0-4.71-4.18-6.22-8.11-7.08" transform="translate(-436.16 -495.82)" style="fill:#14234b"/><path d="M445.22,517.84l1.35-3h12.08l1.35,3Zm7.3-16.54h.19l.22.59,4.1,9.35H448.2l4.11-9.35Zm-1.91-5.48-14.46,32.1h4.61l2.83-6.48h18l2.83,6.48h4.61l-14.45-32.1Z" transform="translate(-436.16 -495.82)" style="fill:#14234b"/></svg>