<svg width="129" height="34" viewBox="0 0 129 34" fill="none" xmlns="http://www.w3.org/2000/svg">
<path d="M0 24.9796L12.8977 0H16.6912L29.5889 24.9796H24.2781L14.7945 6.2449L9.10428 17.6939H17.8292L19.7259 21.1633H7.20756L5.31083 24.9796H0Z" fill="#CC0000"/>
<path d="M24.6572 0L37.555 24.9796H41.3484L54.2461 0H48.9353L39.4517 19.0816L29.9681 0H24.6572Z" fill="#CC0000"/>
<path d="M48.9351 24.9796L61.8328 0H65.6262L78.524 24.9796H73.2131L63.7295 6.2449L58.0393 17.6939H66.7643L68.661 21.1633H56.1426L54.2459 24.9796H48.9351Z" fill="#CC0000"/>
<path d="M74.3511 0L85.7314 24.6327L80.7999 34H86.1108L103.94 0H98.2498L88.3868 19.4286L80.0413 0H74.3511Z" fill="#CC0000"/>
<path d="M98.6299 24.9796L111.528 0H115.321L128.219 24.9796H122.908L113.424 6.2449L107.734 17.6939H116.459L118.356 21.1633H105.837L103.941 24.9796H98.6299Z" fill="#CC0000"/>
</svg>
