<svg xmlns="http://www.w3.org/2000/svg" xmlns:xlink="http://www.w3.org/1999/xlink" height="800" width="1200" version="1.0" viewBox="-50.7 -24.5 439.4 147"><defs><path id="a" d="M0 72L34 0h10l34 72H64L39 18 24 51h23l5 10H19l-5 11z" fill="#C00"/><path id="b" d="M0 0l34 72h10L78 0H64L39 55 14 0z" fill="#C00"/><path id="c" d="M0 0l30 71-13 27h14L78 0H63L37 56 15 0z" fill="#C00"/></defs><use transform="translate(-4 -1)" height="100%" width="100%" xlink:href="#a" y="1" x="4"/><use transform="translate(-4 -1)" height="100%" width="100%" xlink:href="#b" y="1" x="69"/><use transform="translate(-4 -1)" height="100%" width="100%" xlink:href="#a" y="1" x="133"/><use transform="translate(-4 -1)" height="100%" width="100%" xlink:href="#c" y="1" x="200"/><use transform="translate(-4 -1)" height="100%" width="100%" xlink:href="#a" y="1" x="264"/></svg>