<svg width="137" height="28" viewBox="0 0 137 28" fill="none" xmlns="http://www.w3.org/2000/svg">
<path d="M14 22.5837H4.84615V16.1222H14C15.7738 16.1222 17.2308 17.5792 17.2308 19.3529C17.2308 21.1584 15.7738 22.5837 14 22.5837ZM14 5.38461C15.6471 5.38461 16.9457 6.71492 16.9457 8.33031C16.9457 9.97737 15.6154 11.276 14 11.276H4.84615V5.38461H14ZM21.7919 8.33031C21.7919 4.02261 18.3077 0.538452 14 0.538452H0V27.4299H13.9683C18.4344 27.4299 22.0136 23.819 22.0136 19.3529C22.0136 17.1357 21.095 15.1086 19.638 13.6516C21 12.2579 21.7919 10.3891 21.7919 8.33031ZM67.8778 11.3077H58.7556V5.38461H67.9095C69.5565 5.38461 70.8552 6.71492 70.8552 8.33031C70.8552 9.97737 69.5249 11.3077 67.8778 11.3077ZM75.6697 8.33031C75.6697 4.02261 72.1855 0.538452 67.8778 0.538452H53.9095V27.4299H58.7556V16.1222H67.9095C69.6832 16.1222 71.1403 17.5792 71.1403 19.3529V27.4299H75.9864V19.3529C75.9864 17.1357 75.0679 15.1086 73.6108 13.6516C74.8778 12.2579 75.6697 10.3891 75.6697 8.33031ZM83.4615 14C83.4615 9.24886 87.3258 5.38461 92.0769 5.38461H100.154V0.538452H92.0769C84.6651 0.538452 78.647 6.55655 78.647 13.9683C78.647 21.3801 84.6651 27.3982 92.0769 27.3982H100.154V22.5837H92.0769C87.3258 22.5837 83.4615 18.7511 83.4615 14Z" fill="black"/>
<path d="M115.864 23.1222C110.828 23.1222 106.71 19.0362 106.71 13.9683C106.71 8.93213 110.796 4.81448 115.864 4.81448C120.9 4.81448 125.018 8.90045 125.018 13.9683C125.018 19.0362 120.9 23.1222 115.864 23.1222ZM132.398 11.3077C130.814 11.3077 129.452 10.3258 128.882 8.90045C126.855 3.70588 121.787 0 115.864 0C109.941 0 104.873 3.67421 102.846 8.90045C102.308 10.2941 100.946 11.3077 99.3302 11.3077H95.0225V16.6923H99.3302C100.914 16.6923 102.276 17.7059 102.846 19.0995C104.873 24.2941 109.941 28 115.864 28C121.787 28 126.855 24.2941 128.882 19.0995C129.421 17.7059 130.783 16.724 132.398 16.724H136.706V11.3394H132.398V11.3077Z" fill="black"/>
<path d="M115.864 8.8371C113.013 8.8371 110.701 11.1493 110.701 14C110.701 16.8507 113.013 19.1629 115.864 19.1629C118.715 19.1629 121.027 16.8507 121.027 14C121.027 11.1493 118.715 8.8371 115.864 8.8371ZM43.8368 14H31.4838V11.0543C31.4838 7.63348 34.2395 4.87783 37.6603 4.87783C41.0811 4.87783 43.8368 7.63348 43.8368 11.0543V14ZM37.6603 0C31.5789 0 26.6377 4.94118 26.6377 11.0226V27.4299H31.4838V18.8461H43.8368V27.4299H48.6829V11.0226C48.6513 4.94118 43.7418 0 37.6603 0Z" fill="black"/>
</svg>
