<svg width="107" height="34" viewBox="0 0 107 34" fill="none" xmlns="http://www.w3.org/2000/svg">
<path d="M68.4201 25.6469H63.3957C63.3957 25.5398 63.3957 25.438 63.3957 25.3375C63.3957 22.3821 63.4049 19.4267 63.3853 16.4713C63.3814 15.9479 63.3135 15.4114 63.1843 14.9049C62.7809 13.3293 61.6113 12.4299 59.9874 12.345C58.9405 12.2902 58.1194 12.7249 57.3688 13.3985C56.814 13.8958 56.5542 14.4415 56.566 15.2299C56.6156 18.6083 56.5869 21.9879 56.5869 25.3662C56.5869 25.4524 56.5869 25.5385 56.5869 25.6443H51.5859V8.34665H56.5803V9.4014C58.0489 7.96809 59.7903 7.65611 61.6648 7.83364C63.5458 8.01248 65.1214 8.81659 66.3772 10.2238C66.855 9.85829 67.3119 9.48625 67.7909 9.14555C70.0976 7.50599 74.28 7.20314 76.8764 9.04764C78.6413 10.3008 79.6503 12.0226 80.0485 14.1151C80.1842 14.8292 80.243 15.568 80.2482 16.2964C80.2704 19.3314 80.2587 22.3665 80.2587 25.4015C80.2587 25.472 80.2587 25.5411 80.2587 25.6377H75.2369C75.2369 25.5333 75.2369 25.4302 75.2369 25.3271C75.2369 22.4069 75.2486 19.4868 75.2251 16.5666C75.2199 15.9831 75.1403 15.3827 74.9901 14.8187C74.5829 13.294 73.4158 12.4207 71.8416 12.3437C70.3103 12.2693 69.2217 13.0108 68.3483 14.1713C68.3027 14.2313 68.2935 14.3344 68.2974 14.4154C68.3353 15.2691 68.4097 16.1228 68.4149 16.9765C68.4306 19.7466 68.4215 22.5166 68.4215 25.2879V25.6456L68.4201 25.6469Z" fill="black"/>
<path d="M83.1343 34.0001V8.35062H88.143V9.33227C88.2618 9.267 88.3414 9.22654 88.4185 9.18085C91.4169 7.40031 96.226 7.2541 99.4019 10.8387C100.643 12.2394 101.368 13.8881 101.594 15.7378C101.916 18.3799 101.326 20.8027 99.6186 22.8743C97.7036 25.1966 95.2038 26.2148 92.2002 25.9811C90.7969 25.8715 89.485 25.4733 88.284 24.7293C88.2553 24.7123 88.224 24.7005 88.1509 24.6653V25.0243C88.1509 26.9823 88.1482 28.9404 88.1561 30.8985C88.1561 31.0917 88.0986 31.1961 87.9289 31.2901C86.4003 32.1504 84.8757 33.0197 83.351 33.8865C83.2909 33.9205 83.2296 33.9505 83.1356 33.9975L83.1343 34.0001ZM88.1509 16.9988C88.1509 17.8538 88.1483 18.7088 88.1535 19.5639C88.1535 19.6631 88.1704 19.7845 88.2266 19.8589C89.7643 21.9135 92.7354 22.2738 94.5368 21.1068C95.9009 20.2231 96.6163 18.936 96.7129 17.3408C96.8199 15.5733 96.1998 14.0747 94.7496 13.0082C92.781 11.5606 89.639 12.1088 88.2396 14.1152C88.1757 14.2066 88.1548 14.3436 88.1535 14.4598C88.1469 15.3057 88.1496 16.1529 88.1509 16.9988Z" fill="black"/>
<path d="M5.01789 24.6626V25.6455H3.34059e-07C3.34059e-07 25.5372 3.34059e-07 25.4354 3.34059e-07 25.3322C3.34059e-07 17.9138 3.34059e-07 10.4966 3.34059e-07 3.07809C3.34059e-07 2.93581 -0.0013049 2.81963 0.159257 2.72955C1.71266 1.85886 3.25954 0.976426 4.80903 0.0979037C4.86124 0.0691853 4.91607 0.044383 5.00614 0V9.33348C5.13276 9.26691 5.21239 9.22514 5.29071 9.18206C8.29179 7.57383 11.3177 7.45243 14.2835 9.19903C16.6136 10.571 17.9608 12.6961 18.4046 15.3474C18.8758 18.1605 18.2767 20.7491 16.4282 22.9578C14.5289 25.2278 12.0513 26.2029 9.10504 25.9836C7.70175 25.8792 6.38724 25.4863 5.18367 24.7435C5.14712 24.7213 5.10666 24.7044 5.0192 24.6613L5.01789 24.6626ZM5.01397 16.9935C5.01397 17.7428 5.03486 18.4933 5.00484 19.2413C4.98917 19.6343 5.1171 19.9188 5.37165 20.2086C7.05037 22.1145 10.5057 22.5178 12.4207 20.2582C14.277 18.0691 13.888 14.5916 11.5853 12.999C9.59847 11.6244 6.47992 12.1675 5.09752 14.1347C5.03747 14.2195 5.01789 14.3475 5.01658 14.4545C5.01006 15.3004 5.01267 16.1476 5.01267 16.9935H5.01397Z" fill="black"/>
<path d="M42.8521 9.32956V8.34791H47.8504V25.6442H42.86V24.6626C42.7438 24.7226 42.6707 24.7566 42.6015 24.797C37.3539 27.7929 30.6912 25.1573 29.4628 18.7962C28.8741 15.7481 29.5999 12.9807 31.7329 10.6832C33.7249 8.5385 36.2391 7.71872 39.1344 8.04115C40.3954 8.18213 41.5755 8.57113 42.6616 9.23426C42.7046 9.26037 42.7529 9.27995 42.8534 9.33086L42.8521 9.32956ZM42.8482 16.9908C42.8482 16.1437 42.8521 15.2965 42.8443 14.4506C42.8443 14.3357 42.8143 14.1999 42.749 14.1086C41.5207 12.405 38.9686 11.7054 37.0562 12.5382C33.9325 13.8984 33.2837 18.3811 35.8605 20.6799C37.7703 22.3847 41.1199 22.0414 42.7555 19.8744C42.8182 19.7922 42.8443 19.6643 42.8456 19.5572C42.8521 18.7022 42.8495 17.8459 42.8495 16.9895L42.8482 16.9908Z" fill="black"/>
<path d="M26.4732 8.34656V25.6416H21.4736V8.34656H26.4732Z" fill="black"/>
<path d="M106.907 23.8598C106.9 25.1848 105.835 26.2356 104.509 26.2238C103.197 26.2121 102.143 25.1534 102.145 23.8454C102.145 22.5335 103.227 21.454 104.536 21.4579C105.851 21.4618 106.913 22.5388 106.907 23.8585V23.8598Z" fill="#C72A31"/>
</svg>
