<svg width="198" height="24" viewBox="0 0 198 24" fill="none" xmlns="http://www.w3.org/2000/svg">
<path d="M134.904 10.0167H120.923L123.19 6.14339C124.134 4.53832 124.985 3.97126 126.402 3.97126C127.819 3.97126 128.292 5.10442 127.536 6.52111H141.801L143.219 3.97126C144.258 2.08171 144.258 0.00280762 141.707 0.00280762H116.578C114.311 0.00280762 112.515 0.286337 111.193 2.45942L106.752 10.0167C105.525 12.1898 105.619 13.9851 108.642 13.9851H123.096L120.735 18.141C120.073 19.2751 119.223 20.0306 117.239 20.0306C115.538 20.0306 115.633 18.8974 116.388 17.7643H102.218L100.517 20.5986C99.4776 22.394 100.328 24 102.784 24H127.724C129.991 24 131.975 22.961 133.109 21.0715L137.36 13.9861C138.306 12.1898 137.833 10.0167 134.904 10.0167Z" fill="black"/>
<path d="M195.598 4.67004C194.444 4.67004 193.509 5.57638 193.509 6.68359C193.509 7.81386 194.444 8.72019 195.598 8.72019C196.745 8.72019 197.675 7.81386 197.675 6.68359C197.675 5.57638 196.745 4.67004 195.598 4.67004ZM195.598 8.32421C194.657 8.32421 193.905 7.60722 193.905 6.68262C193.905 5.78782 194.656 5.06506 195.598 5.06506C196.527 5.06506 197.279 5.78782 197.279 6.68262C197.279 7.60722 196.527 8.32421 195.598 8.32421Z" fill="black"/>
<path d="M102.69 0.00280762H81.3391C78.4106 0.00280762 74.6314 0.00280762 72.3642 3.97126L62.9164 20.0306C61.5939 22.2037 62.728 23.999 65.1837 23.999H90.0305C92.5813 23.999 94.1873 23.2426 96.171 20.0306L105.619 3.97126C106.846 1.89333 104.957 0.00280762 102.69 0.00280762ZM90.6917 6.14339L83.6073 18.141C82.6625 19.8422 81.8119 20.0306 79.6389 20.0306C77.4658 20.0306 76.8987 19.2751 77.5609 18.141L84.7405 6.14339C85.7804 4.34802 87.0078 3.97126 88.8031 3.97126C90.5985 3.97126 91.6365 4.53832 90.6917 6.14339Z" fill="black"/>
<path d="M65.2791 0.00292969H37.8825L26.0742 20.0307H0L0.0130051 23.9992H52.6202C56.1158 23.9992 57.249 22.298 58.0054 20.9755L60.8387 16.0632C61.5951 14.7407 61.5951 13.2289 60.0833 12.3792C61.598 12.3792 63.6731 11.3403 64.9014 9.16719L67.7357 4.3491C69.1534 1.98764 67.4522 0.00292969 65.2791 0.00292969ZM51.2035 16.1584L49.7859 18.4247C49.4082 19.1811 48.7469 20.0307 47.1409 20.0307H40.1497L43.7424 13.9853H50.5413C51.7696 13.9853 51.7696 15.1184 51.2035 16.1584ZM57.1548 6.14351L55.7371 8.41079C55.3594 9.16719 54.6982 10.0168 53.0921 10.0168H46.101L49.6907 3.97138H56.4926C57.7218 3.97138 57.7218 5.10454 57.1548 6.14351Z" fill="black"/>
<path d="M196.665 6.15583C196.665 5.96649 196.579 5.76562 196.407 5.66854C196.228 5.57051 196.033 5.55994 195.839 5.55994H194.823V7.82529H195.167V6.78056H195.574L196.239 7.82433H196.635L195.929 6.78056C196.344 6.76998 196.665 6.60275 196.665 6.15583ZM195.546 6.49991H195.167V5.81752H195.769C196.062 5.81752 196.32 5.85692 196.32 6.15006C196.321 6.55758 195.873 6.49991 195.546 6.49991Z" fill="black"/>
<path d="M161.787 3.96845H197.214L197.203 0H149.979L135.902 23.9962H168.778L171.14 20.0278H152.34L155.93 13.9823H174.73L176.997 10.0139H158.293L161.787 3.96845Z" fill="black"/>
</svg>
