<svg width="172" height="24" viewBox="0 0 172 24" fill="none" xmlns="http://www.w3.org/2000/svg">
<path fill-rule="evenodd" clip-rule="evenodd" d="M40.9773 0.00912982H49.8021L36.6889 18.9465C36.6889 18.9465 35.8262 20.1382 37.4862 20.1382C39.8399 20.1382 40.9352 20.2576 41.4326 19.5898C42.0217 18.8011 55.3294 0.00702418 55.3294 0.00702418L64.6829 0.00912982C64.6829 0.00912982 50.1578 20.5673 49.8256 21.139C49.4934 21.712 47.2373 23.9305 45.3135 23.9768C43.3896 24.0246 28.8597 23.981 28.8597 23.981C28.8597 23.981 25.5425 23.1896 27.2006 20.3299L40.9773 0.00912982ZM66.469 0L49.1622 23.9902H58.1522L64.6213 15.3572L75.2372 15.36L77.8909 11.7826H67.0767L73.3124 3.34139H85.4534L71.5917 23.9916L80.3844 24L86.6503 15.3396L95.1752 15.3354L99.19 11.7377L89.2347 11.7356L95.2749 3.38984H108.079L112.45 0H66.469ZM37.0211 2.91231C36.4906 3.67567 32.2442 9.82824 31.7137 10.4947C31.1831 11.1618 30.718 12.5446 28.3956 12.4006C28.3956 12.4006 29.6579 13.1177 28.3301 15.5019C27.5709 16.865 24.2821 21.988 23.2865 22.7493C22.2918 23.5119 20.8985 23.9895 18.6444 23.9895H0L16.9179 0.00280753H35.6952C37.4862 0.00280753 38.3489 1.00214 37.0211 2.91231ZM20.2761 13.4119C20.2761 13.4119 17.5491 13.3325 16.8837 13.4751C16.5408 13.5503 12.5377 19.3166 12.5377 19.3166C11.8743 20.5083 13.0351 20.5329 13.0351 20.5329L15.3908 20.5561C16.6844 20.5561 16.9834 19.9346 16.9834 19.9346C16.9834 19.9346 19.4388 16.4548 20.5663 14.643C20.536 14.6914 21.6284 13.4997 20.2761 13.4119ZM27.5328 4.53314C27.5035 4.5816 28.5939 3.38915 27.2416 3.30347C27.2416 3.30347 24.5137 3.22271 23.8512 3.36527C23.5063 3.439 19.5042 9.20813 19.5042 9.20813C18.8418 10.3999 20.0035 10.4413 20.0035 10.4413L22.3573 10.4469C23.6529 10.4469 23.9499 9.82824 23.9499 9.82824C23.9499 9.82824 26.4043 6.34639 27.5328 4.53314ZM171.392 2.9102C169.997 5.2951 157.841 22.1615 157.841 22.1615C157.841 22.1615 156.813 23.9979 152.964 23.9979C149.116 23.9979 137.77 23.9923 137.77 23.9923C136.577 23.9445 135.018 23.3546 135.613 22.3532C135.613 22.3532 134.82 23.0442 134.021 23.9965H105.757L109.205 15.919L103.301 15.9302L93.8806 23.9951H87.3118L114.277 0L123.832 0.00210565L115.11 21.7022L130.814 0.00350941H140.172L126.259 20.3665L136.344 20.3791L150.223 1.14681C151.019 0.287932 151.618 0.00210565 153.939 0.00210565H169.265C169.265 0.00210565 172.786 0.525997 171.392 2.9102ZM112.589 8.39631L108.079 12.0221H111.133L112.589 8.39631ZM161.027 5.05844C161.889 3.77048 160.446 3.43479 160.446 3.43479C160.446 3.43479 159.639 3.26835 158.32 3.38844C157.79 3.43479 157.193 4.0556 157.193 4.0556L145.899 19.4591C145.302 20.7007 146.427 20.8911 146.427 20.8911C146.427 20.8911 146.826 21.0336 148.618 20.9374C149.413 20.8946 149.946 20.4135 149.946 20.4135C149.946 20.4135 160.223 6.2551 161.027 5.05844Z" fill="#CC2229"/>
</svg>
