<svg width="76" height="41" viewBox="0 0 76 41" fill="none" xmlns="http://www.w3.org/2000/svg">
<g clip-path="url(#clip0_552_4650)">
<path d="M24.8532 27.109H21.53V40.2785H24.8532V27.109Z" fill="#C4122E"/>
<path d="M51.6494 30.8827C51.5157 30.8133 50.4473 30.1796 48.8578 30.1796C46.7051 30.1796 45.2157 31.6754 45.2157 33.6922C45.2157 35.649 46.643 37.208 48.8578 37.208C50.4199 37.208 51.5062 36.588 51.6494 36.5091V40.0438C51.2367 40.1606 50.103 40.5122 48.6188 40.5122C44.883 40.5122 41.6062 37.9354 41.6062 33.6922C41.6062 29.7596 44.5746 26.8754 48.6188 26.8754C50.183 26.8754 51.3367 27.2554 51.6494 27.348V30.8827Z" fill="#C4122E"/>
<path d="M16.9614 30.8827C16.8277 30.8133 15.7593 30.1796 14.1698 30.1796C12.0172 30.1796 10.5277 31.6754 10.5277 33.6922C10.5277 35.649 11.9551 37.208 14.1698 37.208C15.7319 37.208 16.8182 36.588 16.9614 36.5091V40.0438C16.5487 40.1606 15.4151 40.5122 13.9308 40.5122C10.1951 40.5122 6.91821 37.9354 6.91821 33.6922C6.91821 29.7596 9.88663 26.8754 13.9308 26.8754C15.4951 26.8754 16.6487 27.2554 16.9614 27.348V30.8827Z" fill="#C4122E"/>
<path d="M62.1032 30.2289C60.1316 30.2289 58.6674 31.7805 58.6674 33.6921C58.6674 35.6079 60.1316 37.1584 62.1032 37.1584C64.0727 37.1584 65.5411 35.6079 65.5411 33.6921C65.5411 31.7805 64.0727 30.2289 62.1032 30.2289ZM69.0621 33.6921C69.0621 37.4595 66.1537 40.5121 62.1032 40.5121C58.0527 40.5121 55.1484 37.4595 55.1484 33.6921C55.1484 29.931 58.0527 26.8752 62.1032 26.8752C66.1537 26.8752 69.0621 29.931 69.0621 33.6921Z" fill="#C4122E"/>
<path d="M37.4559 30.1024C37.4064 30.0866 36.0075 29.7002 34.858 29.7002C33.5264 29.7002 32.8022 30.1466 32.8022 30.7792C32.8022 31.5813 33.779 31.8613 34.3254 32.0339L35.2422 32.3255C37.399 33.0118 38.3822 34.4887 38.3822 36.0929C38.3822 39.4013 35.4727 40.5129 32.9296 40.5129C31.1622 40.5129 29.5064 40.1876 29.3433 40.1529V37.1224C29.6359 37.196 31.0296 37.6118 32.4811 37.6118C34.1348 37.6118 34.8948 37.1287 34.8948 36.3824C34.8948 35.715 34.2369 35.3297 33.4127 35.0708C33.2117 35.0034 32.9096 34.9087 32.7033 34.8413C30.8527 34.256 29.3096 33.1687 29.3096 30.9887C29.3096 28.5255 31.1538 26.8718 34.2169 26.8718C35.8348 26.8718 37.3569 27.2645 37.4559 27.2908V30.1024Z" fill="#C4122E"/>
<path d="M3.39424 12.9559C3.39424 12.0485 2.65319 11.3127 1.74476 11.3127C0.836344 11.3127 0.0942383 12.0485 0.0942383 12.9559V16.4127C0.0942383 17.3254 0.836344 18.0622 1.74476 18.0622C2.65319 18.0622 3.39424 17.3254 3.39424 16.4127V12.9559Z" fill="#15495D"/>
<path d="M12.4567 8.41858C12.4567 7.51121 11.7157 6.77332 10.8073 6.77332C9.89779 6.77332 9.15674 7.51121 9.15674 8.41858V16.4133C9.15674 17.3259 9.89779 18.0617 10.8073 18.0617C11.7157 18.0617 12.4567 17.3259 12.4567 16.4133V8.41858Z" fill="#15495D"/>
<path d="M21.5192 2.21062C21.5192 1.30325 20.7782 0.566406 19.8698 0.566406C18.9603 0.566406 18.2192 1.30325 18.2192 2.21062V19.698C18.2192 20.6106 18.9603 21.3475 19.8698 21.3475C20.7782 21.3475 21.5192 20.6106 21.5192 19.698V2.21062Z" fill="#15495D"/>
<path d="M30.5817 8.41858C30.5817 7.51121 29.8407 6.77332 28.9323 6.77332C28.0228 6.77332 27.2817 7.51121 27.2817 8.41858V16.4133C27.2817 17.3259 28.0228 18.0617 28.9323 18.0617C29.8407 18.0617 30.5817 17.3259 30.5817 16.4133V8.41858Z" fill="#15495D"/>
<path d="M39.6337 12.9559C39.6337 12.0485 38.8979 11.3127 37.9937 11.3127C37.0853 11.3127 36.3442 12.0485 36.3442 12.9559V16.4127C36.3442 17.3254 37.0853 18.0622 37.9937 18.0622C38.8979 18.0622 39.6337 17.3254 39.6337 16.4127V12.9559Z" fill="#15495D"/>
<path d="M39.6384 12.9559C39.6384 12.0485 38.8973 11.3127 37.9889 11.3127C37.0805 11.3127 36.3384 12.0485 36.3384 12.9559V16.4127C36.3384 17.3254 37.0805 18.0622 37.9889 18.0622C38.8973 18.0622 39.6384 17.3254 39.6384 16.4127V12.9559Z" fill="#15495D"/>
<path d="M48.7009 8.41858C48.7009 7.51121 47.9598 6.77332 47.0514 6.77332C46.1419 6.77332 45.4009 7.51121 45.4009 8.41858V16.4133C45.4009 17.3259 46.1419 18.0617 47.0514 18.0617C47.9598 18.0617 48.7009 17.3259 48.7009 16.4133V8.41858Z" fill="#15495D"/>
<path d="M57.7634 2.21074C57.7634 1.30337 57.0223 0.566528 56.1139 0.566528C55.2044 0.566528 54.4634 1.30337 54.4634 2.21074V19.6981C54.4634 20.6107 55.2044 21.3476 56.1139 21.3476C57.0223 21.3476 57.7634 20.6107 57.7634 19.6981V2.21074Z" fill="#15495D"/>
<path d="M66.8259 8.41858C66.8259 7.51121 66.0848 6.77332 65.1764 6.77332C64.2669 6.77332 63.5259 7.51121 63.5259 8.41858V16.4133C63.5259 17.3259 64.2669 18.0617 65.1764 18.0617C66.0848 18.0617 66.8259 17.3259 66.8259 16.4133V8.41858Z" fill="#15495D"/>
<path d="M75.8779 12.9559C75.8779 12.0485 75.1421 11.3127 74.2379 11.3127C73.3294 11.3127 72.5884 12.0485 72.5884 12.9559V16.4127C72.5884 17.3254 73.3294 18.0622 74.2379 18.0622C75.1421 18.0622 75.8779 17.3254 75.8779 16.4127V12.9559Z" fill="#15495D"/>
<path d="M73.9827 38.5439V38.7503H73.3953V40.2776H73.1543V38.7503H72.5637V38.5439H73.9827Z" fill="#C4122E"/>
<path d="M74.1057 38.5439H74.4836L75.0026 39.9661H75.011L75.5131 38.5439H75.8836V40.2776H75.6362V38.8566H75.6278L75.1015 40.2776H74.8731L74.3594 38.8566H74.3478V40.2776H74.1057V38.5439Z" fill="#C4122E"/>
</g>
<defs>
<clipPath id="clip0_552_4650">
<rect width="75.7895" height="40" fill="white" transform="translate(0.0947266 0.5354)"/>
</clipPath>
</defs>
</svg>
