<svg width="152" height="36" viewBox="0 0 152 36" fill="none" xmlns="http://www.w3.org/2000/svg">
<path d="M43.5002 13.1718C38.6002 13.1718 34.2002 16.57 33.3002 21.9859C32.4002 27.508 35.7002 30.4815 40.7002 30.4815C44.3002 30.4815 48.4002 29.101 50.1002 25.0656H44.2002C43.6002 26.0213 42.6002 26.5523 41.7002 26.5523C40.1002 26.5523 38.9002 25.2779 39.2002 23.3664L50.9002 23.2602C52.0002 17.3133 49.2002 13.1718 43.5002 13.1718ZM45.3002 19.862H39.7002C40.0002 18.0567 41.2002 16.9948 43.0002 16.9948C44.5002 17.101 45.6002 18.3753 45.3002 19.862Z" fill="black"/>
<path d="M135.3 13.1718C130.3 13.1718 126 16.57 125.1 21.9859C124.2 27.508 127.5 30.6939 132.4 30.6939C136 30.6939 140.2 29.2072 141.9 25.0656H136C135.4 26.0213 134.4 26.5523 133.5 26.5523C131.9 26.5523 130.7 25.2779 131 23.3664H142.7V23.2602C143.8 17.3133 141 13.1718 135.3 13.1718ZM137.2 19.9682H131.6C131.9 18.1629 133.1 17.101 134.9 17.101C136.4 17.101 137.4 18.3753 137.2 19.9682Z" fill="black"/>
<path d="M69.3002 19.862C69.9002 15.9328 70.0002 13.0656 62.7002 13.0656C56.6002 13.0656 53.9002 15.0833 53.4002 18.5877H59.3002C59.7002 17.2071 60.9002 16.9948 61.7002 16.9948C62.3002 16.9948 63.7002 17.101 63.5002 18.3753C63.0002 21.4549 52.6002 18.0567 51.3002 25.4903C50.7002 28.8886 53.1002 30.4815 56.0002 30.4815C58.3002 30.4815 60.2002 29.9505 62.2002 28.2514V30.6939L68.4002 30.5877L68.5002 30.0567C67.8002 29.4195 67.9002 28.4638 68.1002 27.6142L69.3002 19.862ZM59.3002 26.7647C58.1002 26.7647 57.4002 26.2337 57.6002 25.3841C57.9002 23.2602 60.5002 23.685 62.7002 22.7293C62.5002 24.9594 61.5002 26.7647 59.3002 26.7647Z" fill="black"/>
<path d="M18.1002 21.2425C17.5002 23.3664 16.1002 25.0655 13.9002 25.0655C10.4002 25.0655 10.2002 22.0921 10.7002 18.9062C11.4002 14.5523 13.3002 12.3222 15.7002 12.3222C17.9002 12.3222 19.0002 13.7027 18.9002 16.039H25.5002C25.9002 10.1983 22.8002 6.80005 16.4002 6.80005C10.5002 6.80005 5.00022 11.3664 3.80022 18.6939C2.60022 26.0213 6.10022 30.5877 13.1002 30.5877C18.7002 30.5877 23.2002 27.0832 24.8002 21.2425H18.1002Z" fill="black"/>
<path d="M28.7002 6.80005L24.7002 30.5877H30.8002L34.8002 6.80005H28.7002Z" fill="black"/>
<path d="M77.5 16.8886L78 13.5965H72.4L69.5 30.6939H75.7L76.7 24.3222C77.3 20.8178 78.8 19.5434 81.3 19.5434C81.8 19.5434 82.2 19.6496 82.6 19.6496L83.7 13.1717C83.4 13.1717 83.2 13.0656 82.9 13.0656C80.5 13.0656 78.8 14.2337 77.5 16.8886Z" fill="black"/>
<path d="M97.1001 6.80005C90.5001 6.80005 85.2001 11.3664 84.0001 18.4815C82.7001 26.1275 86.5001 30.4815 93.1001 30.4815C99.5001 30.5877 105.1 26.2337 106.3 18.5877C107.3 12.6408 104.7 6.80005 97.1001 6.80005ZM99.4001 18.5877C98.8001 22.3045 97.1001 25.0655 94.1001 25.0655C90.8001 25.0655 90.5001 21.4549 91.0001 18.5877C91.5001 15.7204 93.0001 12.3222 96.1001 12.3222C99.2001 12.216 99.9001 15.508 99.4001 18.5877Z" fill="black"/>
<path d="M119.4 13.1718C117.1 13.1718 115.4 14.2337 113.7 16.2514L114.1 13.7027H108.5L105.6 30.8001H111.7L113.2 21.7735C113.6 19.6496 114.3 18.3753 116.2 18.3753C117.9 18.3753 118.1 19.862 117.8 21.4549L116.2 30.8001H122.3L124.2 20.1806C124.9 15.7204 123.5 13.1718 119.4 13.1718Z" fill="black"/>
<path d="M145.9 27.3C146.1 27.3 146.2 27.3 146.3 27.2C146.4 27.1 146.4 26.8 146.4 26.6C146.4 26.5 146.4 26.3 146.3 26.2C146.2 26.1 146.2 26.1 146 26C145.9 26 145.7 26 145.5 26H144.6V28.2H145V27.3H145.1C145.2 27.3 145.3 27.3 145.3 27.3C145.3 27.3 145.4 27.3 145.4 27.4C145.4 27.4 145.5 27.6 145.6 27.7L145.9 28.2H146.4C146.4 28.2 146 27.4 145.9 27.3ZM145.4 26.9H145.1V26.3H145.4C145.6 26.3 145.7 26.3 145.7 26.3C145.8 26.3 145.9 26.3 146 26.4C146 26.4 146 26.5 146 26.6C146 26.7 146 26.7 146 26.8C146 26.9 145.8 26.9 145.8 26.9C145.7 26.9 145.6 26.9 145.4 26.9Z" fill="white"/>
<path d="M145.5 25C144.3 25 143.4 26 143.4 27.1C143.4 28.3 144.4 29.2 145.5 29.2C146.7 29.2 147.6 28.2 147.6 27.1C147.6 26 146.6 25 145.5 25ZM145.5 28.9C144.5 28.9 143.7 28.1 143.7 27.1C143.7 26.1 144.5 25.3 145.5 25.3C146.5 25.3 147.3 26.1 147.3 27.1C147.3 28.1 146.5 28.9 145.5 28.9Z" fill="white"/>
</svg>
