<svg width="234" height="70" viewBox="0 0 234 70" fill="none" xmlns="http://www.w3.org/2000/svg">
<path d="M43.1109 35.0683C43.1109 37.0482 43.1322 37.1973 43.5367 37.1973C45.4102 37.1973 46.3469 34.5361 44.878 33.3652C44.5799 33.131 44.0477 32.9394 43.7283 32.9394H43.1109V35.0683Z" fill="#DF3341"/>
<path d="M25.0361 33.3013C24.0994 34.089 24.1207 35.9838 25.0574 36.665C25.3342 36.8353 25.9303 36.9844 26.42 36.9844C27.1651 36.9844 27.4206 36.8779 27.8677 36.3244C29.0812 34.8767 28.2509 32.9394 26.3987 32.9394C25.8451 32.9394 25.3129 33.0884 25.0361 33.3013Z" fill="#DF3341"/>
<path d="M36.3197 62.4462C37.5119 68.9394 45.4959 71.4522 50.1371 66.7899C51.457 65.4912 52.2236 63.8726 52.5003 61.9139C52.628 61.06 52.6699 49.8411 52.6273 33.9823C52.5634 5.45441 52.6275 7.11476 51.4779 4.94323C49.8598 1.89899 45.9212 0.195966 42.4085 1.02623C39.3004 1.75015 36.8304 4.47526 36.2982 7.75377C36.0002 9.56641 36.0217 60.8007 36.3197 62.4462ZM25.7601 42.9022C28.7406 43.0512 31.2526 41.8802 32.8919 39.5809C34.4247 37.4521 34.4466 37.3032 34.5531 27.5956C34.5957 22.4222 34.5314 18.3341 34.4037 17.3973C33.8926 13.6506 31.2952 10.819 27.7826 10.159C26.5054 9.92492 25.9303 9.92508 24.5892 10.1805C21.3746 10.8193 18.7348 13.5656 18.2025 16.8866C17.9044 18.6323 17.9259 34.6639 18.224 36.2606C18.9054 40.0499 21.9282 42.7105 25.7601 42.9022ZM62.5062 59.5506C65.955 59.5506 69.1273 57.2731 70.2982 53.952C70.6388 52.9514 70.681 51.9293 70.681 43.2645C70.681 33.0031 70.639 32.5983 69.5746 30.661C68.8294 29.3623 66.9554 27.7227 65.5716 27.2118C63.9537 26.5945 61.8247 26.4675 60.3558 26.8719C57.1625 27.7661 54.8844 30.3417 54.3734 33.6415C54.2456 34.4931 54.1814 38.5599 54.224 44.0526C54.2878 52.8235 54.3093 53.0792 54.7777 54.2714C55.4377 55.9106 56.481 57.2096 57.8861 58.1464C59.3763 59.1469 60.7179 59.5506 62.5062 59.5506ZM0.808934 38.5594C2.2992 41.7954 6.40847 43.7755 9.92124 42.9452C11.5391 42.562 12.5611 41.9869 13.8597 40.7948C15.371 39.3472 16.137 37.623 16.2435 35.4305C16.4351 31.8752 14.7536 29.0224 11.6029 27.5321C10.4746 26.9999 9.92102 26.8715 8.40952 26.829C7.15359 26.7864 6.30188 26.8714 5.64194 27.1268C0.851888 28.8512 -1.29854 33.9397 0.808934 38.5594ZM80.5804 43.0516C82.5603 43.0516 82.9652 42.9874 84.0296 42.4764C89.1604 40.0707 90.3311 33.0027 86.2435 29.1493C84.1572 27.1909 81.6661 26.4454 78.8773 26.9989C75.7053 27.6164 73.023 30.4482 72.5121 33.7479C71.9372 37.3033 73.8749 40.9649 77.1322 42.4764C78.1965 42.9873 78.6009 43.0516 80.5804 43.0516ZM40.7699 30.5546L42.8988 30.6395C44.8358 30.7034 45.091 30.7681 45.9212 31.3641C47.1986 32.2583 47.9015 33.578 47.8802 35.0682C47.8589 36.4518 47.4545 37.3033 46.433 38.2186C45.4749 39.0489 44.4951 39.326 42.43 39.326H40.7699V30.5546ZM79.1966 39.2831L77.0677 39.2196L77.0042 38.3036L76.9408 37.41H79.2826C81.1132 37.41 81.6882 37.346 81.9437 37.0692C82.199 36.8139 82.2205 36.6432 82.0716 36.3241C81.8587 35.9622 81.6023 35.9198 79.4095 35.9198H76.9613V34.0038H79.4095C81.5172 34.0038 81.8798 33.9606 82.0501 33.62C82.1777 33.3859 82.1778 33.1089 82.0501 32.8749C81.8585 32.5556 81.4957 32.5135 79.4095 32.5135H76.9613V30.5975H79.6019C81.9645 30.5975 82.2839 30.6399 82.9437 31.0868C83.3482 31.3635 83.7958 31.9172 83.9662 32.3856C84.2082 33.0188 84.2386 33.2611 84.057 33.8251L83.8753 34.3524C83.6932 34.9195 83.7211 35.1665 83.9447 35.7069C84.3277 36.6648 84.115 37.6866 83.3275 38.453C82.5398 39.2407 81.9217 39.3682 79.1966 39.2831ZM26.3773 39.326C24.8446 39.3258 23.0987 38.155 22.4388 36.6649C20.8847 33.2586 24.5046 29.4897 27.9535 30.9374C30.8487 32.1296 31.5937 35.7492 29.4222 37.9208C28.5919 38.7511 27.3353 39.326 26.3773 39.326ZM63.3998 39.2831C60.6325 39.3469 59.7384 39.0914 59.0785 38.0057C58.5889 37.1968 58.5248 36.2602 58.9505 35.4725C59.1847 35.0042 59.1847 34.8339 58.9505 34.4081C58.5674 33.7056 58.5892 32.4925 58.9935 31.8964C59.7812 30.7893 60.4623 30.5969 63.2298 30.6395L65.7845 30.704V32.4071L63.3578 32.5135C61.4001 32.5987 60.8887 32.6836 60.7181 32.9813C60.5478 33.2368 60.5686 33.4288 60.7601 33.663C60.973 33.9184 61.5692 34.0032 63.3998 34.0458L65.7845 34.1102V35.8133L63.3578 35.9198C61.4002 36.0049 60.8887 36.0899 60.7181 36.3876C60.5478 36.643 60.5686 36.8351 60.7601 37.0692C60.9943 37.346 61.5271 37.41 63.4857 37.41H65.9124L65.849 38.3036L65.7845 39.2196L63.3998 39.2831ZM8.62241 39.326C8.00501 39.326 6.34391 38.6026 5.79038 38.0917C4.51307 36.942 4.15131 34.5782 4.9603 33.0028C6.08865 30.8314 8.49433 30.0443 10.7083 31.1512C11.3255 31.4492 11.8154 31.7681 11.8158 31.8534C11.8158 31.9385 11.4966 32.3218 11.0921 32.7049C10.475 33.3008 10.3043 33.365 9.94272 33.1737C8.53762 32.4286 6.70639 33.4289 6.70639 34.9618C6.70643 36.4946 8.53763 37.495 9.94272 36.7499C10.3044 36.5585 10.4752 36.6229 11.1136 37.2401L11.8373 37.9423L11.305 38.411C10.7089 38.9219 9.49525 39.326 8.62241 39.326Z" fill="#DF3341"/>
<path d="M233.654 32.5635L233.594 32.623L231.257 34.9199L233.595 37.2578L233.654 37.3184V45.585L229.791 49.4482H218.228L218.168 49.3887L214.425 45.6445L214.365 45.585V42.123H217.864V44.3965L219.778 46.2734H228.24L230.154 44.3975V38.3408L228.32 36.5068H220.062V33.333H228.32L230.154 31.498V25.6035L228.239 23.7285H220.024L218.108 25.6045V27.8799H214.609V24.418L214.669 24.3574L218.413 20.6143L218.473 20.5547H229.791L229.851 20.6143L233.595 24.3574L233.654 24.418V32.5635Z" fill="#DF3341" stroke="#DF3341" stroke-width="0.406952"/>
<path d="M210.701 20.5547V23.7285H195.399V33.333H209.521V36.5068H195.399V46.2734H210.701V49.4482H191.9V20.5547H210.701Z" fill="#DF3341" stroke="#DF3341" stroke-width="0.406952"/>
<path d="M168.375 46.2734H180.053L182.7 43.665V26.3359L180.053 23.7285H168.375V46.2734ZM186.2 44.8525L181.605 49.4482H164.876V20.5547H181.605L186.2 25.1504V44.8525Z" fill="#DF3341" stroke="#DF3341" stroke-width="0.406952"/>
<path d="M140.467 26.3359V43.665L143.114 46.2734H153.04L155.688 43.665V26.3359L153.04 23.7285H143.114L140.467 26.3359ZM159.188 44.8525L159.127 44.9121L154.652 49.3887L154.592 49.4482H141.564L136.968 44.8525V25.1504L141.564 20.5547H154.592L154.652 20.6143L159.127 25.0908L159.188 25.1504V44.8525Z" fill="#DF3341" stroke="#DF3341" stroke-width="0.406952"/>
<path d="M132.7 27.8799H129.2V26.1738L126.716 23.7285H117.441L114.794 26.3359V43.665L117.441 46.2734H126.716L129.2 43.8281V42.123H132.7V45.0146L132.641 45.0742L128.327 49.3887L128.268 49.4482H115.891L111.295 44.8525V25.1504L115.891 20.5547H128.268L132.7 24.9873V27.8799Z" fill="#DF3341" stroke="#DF3341" stroke-width="0.406952"/>
</svg>
