<svg width="1216" height="420" viewBox="0 0 1216 420" fill="none" xmlns="http://www.w3.org/2000/svg">
<g clip-path="url(#clip0_266_74418)">
<rect y="0.4646" width="1216" height="419" fill="url(#paint0_linear_266_74418)"/>
<path opacity="0.4" d="M772.5 1058.93C1105.8 1058.93 1376 788.733 1376 455.429C1376 122.126 1105.8 -148.071 772.5 -148.071C439.196 -148.071 169 122.126 169 455.429C169 788.733 439.196 1058.93 772.5 1058.93ZM772.5 1056.27C440.663 1056.27 171.655 787.267 171.655 455.429C171.655 123.592 440.663 -145.415 772.5 -145.415C1104.34 -145.415 1373.34 123.592 1373.34 455.429C1373.34 787.267 1104.34 1056.27 772.5 1056.27ZM771.13 989.48C1065.62 989.48 1304.36 750.745 1304.36 456.251C1304.36 161.756 1065.62 -76.9788 771.13 -76.9788C476.636 -76.9785 237.9 161.756 237.9 456.251C237.9 750.745 476.636 989.48 771.13 989.48ZM771.13 986.825C478.102 986.825 240.556 749.278 240.556 456.251C240.556 163.223 478.102 -74.3232 771.13 -74.3235C1064.16 -74.3235 1301.7 163.223 1301.7 456.251C1301.7 749.279 1064.16 986.825 771.13 986.825ZM770.197 915.967C1023.6 915.967 1229.02 710.544 1229.02 457.141C1229.02 203.739 1023.6 -1.68384 770.197 -1.68384C516.795 -1.68347 311.372 203.74 311.372 457.141C311.372 710.543 516.795 915.966 770.197 915.967ZM770.197 913.311C518.262 913.311 314.027 709.077 314.027 457.141C314.028 205.206 518.262 0.971802 770.197 0.971436C1022.13 0.971436 1226.37 205.206 1226.37 457.141C1226.37 709.077 1022.13 913.311 770.197 913.311ZM774.607 859.178C992.585 857.798 1168.86 680.666 1168.86 462.364L1168.85 459.798C1167.47 241.82 990.343 65.543 772.041 65.5427L769.475 65.5505C552.352 66.9255 376.602 242.675 375.227 459.798L375.219 462.364C375.219 681.523 552.882 859.186 772.041 859.186L774.607 859.178ZM772.041 856.531C554.349 856.531 377.874 680.056 377.874 462.364C377.874 244.672 554.349 68.198 772.041 68.198C989.733 68.1982 1166.21 244.672 1166.21 462.364C1166.21 680.056 989.733 856.531 772.041 856.531ZM772.094 793.265C958.283 792.086 1108.85 640.787 1108.85 454.32L1108.85 452.128C1107.67 265.939 956.368 115.368 769.901 115.368L767.709 115.375C582.25 116.549 432.131 266.669 430.956 452.128L430.949 454.32C430.949 641.518 582.703 793.272 769.901 793.272L772.094 793.265ZM769.901 790.617C584.17 790.617 433.605 640.051 433.604 454.32C433.605 268.589 584.17 118.024 769.901 118.024C955.632 118.024 1106.2 268.589 1106.2 454.32C1106.2 640.051 955.632 790.617 769.901 790.617Z" fill="url(#paint1_linear_266_74418)"/>
</g>
<defs>
<linearGradient id="paint0_linear_266_74418" x1="374" y1="553.429" x2="249.824" y2="11.5103" gradientUnits="userSpaceOnUse">
<stop stop-color="#C90E1D"/>
<stop offset="1" stop-color="#F0B4AC"/>
</linearGradient>
<linearGradient id="paint1_linear_266_74418" x1="774.115" y1="543.579" x2="772.5" y2="-169.316" gradientUnits="userSpaceOnUse">
<stop stop-color="white" stop-opacity="0"/>
<stop offset="1" stop-color="white"/>
</linearGradient>
<clipPath id="clip0_266_74418">
<rect width="1216" height="419" fill="white" transform="translate(0 0.4646)"/>
</clipPath>
</defs>
</svg>
