<svg width="165" height="41" viewBox="0 0 165 41" fill="none" xmlns="http://www.w3.org/2000/svg">
<path d="M0 0.5354H19.008V19.5431H0V0.5354Z" fill="#F25022"/>
<path d="M20.992 0.5354H40V19.5431H20.992V0.5354Z" fill="#7FBA00"/>
<path d="M0 21.5277H19.008V40.5354H0V21.5277Z" fill="#00A4EF"/>
<path d="M20.992 21.5277H40V40.5354H20.992V21.5277Z" fill="#FFB900"/>
<path d="M63.7845 23.6236L62.8542 26.2597H62.7767C62.6216 25.6653 62.3373 24.7607 61.8721 23.6753L56.8844 11.1413H52V31.1182H55.2304V18.7909L55.2046 16.0516C55.1787 15.5088 55.127 15.0954 55.1012 14.7852H55.1787C55.3338 15.5605 55.5147 16.1291 55.6439 16.4909L61.6395 31.0665H63.9138L69.8577 16.3617C69.9869 16.0257 70.1161 15.3538 70.2454 14.7852H70.3229L70.1678 18.3775V31.0407H73.605V11.0896H68.9015L63.7845 23.6236ZM76.8612 16.7235H80.2209V31.0407H76.8612V16.7235ZM78.5669 10.6762C77.9983 10.6762 77.5332 10.8829 77.1455 11.2447C76.7579 11.6065 76.5511 12.0717 76.5511 12.6402C76.5475 12.8976 76.5986 13.1528 76.7011 13.389C76.8036 13.6251 76.9551 13.8368 77.1455 14.0099C77.5332 14.3717 77.9983 14.5526 78.5669 14.5526C79.1355 14.5526 79.6265 14.3459 79.9883 14.0099C80.1787 13.8368 80.3302 13.6251 80.4327 13.389C80.5352 13.1528 80.5863 12.8976 80.5827 12.6402C80.5827 12.0975 80.3759 11.6324 79.9883 11.2447C79.6523 10.8829 79.1613 10.6762 78.5669 10.6762ZM92.1346 16.5943C91.5144 16.465 90.8683 16.3875 90.2481 16.3875C88.7233 16.3875 87.3278 16.7235 86.1648 17.3954C85.0019 18.0673 84.0715 18.9977 83.4771 20.1606C82.8569 21.3494 82.5468 22.7191 82.5468 24.2956C82.5468 25.6653 82.8569 26.8799 83.4513 27.9912C84.0457 29.0766 84.8727 29.9552 85.9839 30.5496C87.0435 31.144 88.284 31.4542 89.6795 31.4542C91.2818 31.4542 92.6515 31.1182 93.7369 30.498L93.7628 30.4721V27.3709L93.6335 27.4743C93.1425 27.8361 92.574 28.1462 92.0054 28.3271C91.411 28.5339 90.8683 28.6372 90.4031 28.6372C89.0593 28.6372 87.9997 28.2496 87.2502 27.3968C86.4749 26.5698 86.0873 25.4327 86.0873 24.0113C86.0873 22.5382 86.475 21.3753 87.2761 20.5224C88.0772 19.6696 89.1368 19.2303 90.429 19.2303C91.5144 19.2303 92.6257 19.5921 93.6335 20.3157L93.7628 20.4191V17.137L93.7369 17.1111C93.2976 16.9302 92.8066 16.7235 92.1346 16.5943ZM103.221 16.4909C102.394 16.4909 101.619 16.7493 100.947 17.292C100.379 17.7572 99.991 18.4291 99.655 19.2303H99.6292V16.7235H96.2696V31.0407H99.6292V23.727C99.6292 22.4865 99.8876 21.4528 100.456 20.7034C101.025 19.9281 101.748 19.5404 102.627 19.5404C102.937 19.5404 103.247 19.6179 103.635 19.6696C103.997 19.773 104.255 19.8764 104.436 20.0056L104.565 20.109V16.7493L104.488 16.7235C104.255 16.5684 103.79 16.4909 103.221 16.4909ZM112.37 16.4134C110.018 16.4134 108.132 17.1111 106.814 18.4808C105.47 19.8505 104.824 21.7371 104.824 24.1147C104.824 26.3372 105.496 28.1462 106.788 29.4642C108.08 30.7564 109.837 31.4283 112.034 31.4283C114.334 31.4283 116.169 30.7306 117.487 29.335C118.831 27.9395 119.477 26.0788 119.477 23.7787C119.477 21.5045 118.857 19.6955 117.59 18.3775C116.376 17.0594 114.592 16.4134 112.37 16.4134ZM115.058 27.4226C114.437 28.2238 113.455 28.6114 112.241 28.6114C111.026 28.6114 110.044 28.2238 109.346 27.3709C108.648 26.5698 108.313 25.4068 108.313 23.9338C108.313 22.409 108.674 21.2461 109.346 20.4191C110.044 19.5921 111 19.1786 112.215 19.1786C113.404 19.1786 114.334 19.5662 115.006 20.3674C115.678 21.1685 116.04 22.3315 116.04 23.8562C115.988 25.4068 115.704 26.6215 115.058 27.4226ZM126.971 22.6674C125.912 22.2281 125.24 21.8921 124.93 21.6079C124.671 21.3494 124.542 20.9876 124.542 20.5224C124.542 20.1348 124.697 19.7471 125.085 19.4887C125.472 19.2303 125.912 19.1011 126.558 19.1011C127.126 19.1011 127.721 19.2044 128.289 19.3595C128.858 19.5146 129.375 19.7471 129.788 20.0573L129.918 20.1606V17.0078L129.84 16.9819C129.452 16.8269 128.935 16.6718 128.315 16.5426C127.695 16.4392 127.126 16.3875 126.661 16.3875C125.059 16.3875 123.741 16.7752 122.707 17.628C121.674 18.4291 121.182 19.5146 121.182 20.7809C121.182 21.4528 121.286 22.0472 121.518 22.5382C121.751 23.0292 122.087 23.4944 122.552 23.8821C123.017 24.2439 123.689 24.6574 124.62 25.045C125.395 25.381 125.989 25.6394 126.351 25.8462C126.713 26.0529 126.946 26.2855 127.126 26.4664C127.256 26.6732 127.333 26.9316 127.333 27.2675C127.333 28.2238 126.61 28.6889 125.137 28.6889C124.568 28.6889 123.974 28.5856 123.276 28.353C122.578 28.1204 121.932 27.7844 121.389 27.3968L121.26 27.2934V30.5755L121.338 30.6013C121.829 30.8339 122.423 30.989 123.147 31.1699C123.87 31.2991 124.516 31.4025 125.085 31.4025C126.816 31.4025 128.238 31.0148 129.246 30.162C130.279 29.335 130.822 28.2754 130.822 26.9057C130.822 25.9495 130.564 25.0967 129.995 24.4506C129.246 23.8304 128.315 23.1843 126.971 22.6674ZM139.686 16.4134C137.335 16.4134 135.448 17.1111 134.13 18.4808C132.812 19.8505 132.14 21.7371 132.14 24.1147C132.14 26.3372 132.812 28.1462 134.104 29.4642C135.396 30.7564 137.154 31.4283 139.35 31.4283C141.65 31.4283 143.485 30.7306 144.803 29.335C146.147 27.9395 146.793 26.0788 146.793 23.7787C146.793 21.5045 146.173 19.6955 144.907 18.3775C143.692 17.0594 141.909 16.4134 139.686 16.4134ZM142.348 27.4226C141.728 28.2238 140.746 28.6114 139.531 28.6114C138.291 28.6114 137.335 28.2238 136.637 27.3709C135.939 26.5698 135.603 25.4068 135.603 23.9338C135.603 22.409 135.965 21.2461 136.637 20.4191C137.335 19.5921 138.291 19.1786 139.505 19.1786C140.668 19.1786 141.625 19.5662 142.296 20.3674C142.968 21.1685 143.33 22.3315 143.33 23.8562C143.33 25.4068 142.994 26.6215 142.348 27.4226ZM164.754 19.4887V16.7235H161.369V12.4852L161.265 12.511L158.061 13.4672L157.983 13.4931V16.7235H152.918V14.9145C152.918 14.0875 153.125 13.4414 153.487 13.0279C153.848 12.6144 154.391 12.4077 155.063 12.4077C155.528 12.4077 156.019 12.511 156.562 12.7436L156.691 12.8211V9.90085L156.614 9.87501C156.148 9.71995 155.528 9.61658 154.727 9.61658C153.719 9.61658 152.841 9.84917 152.039 10.2368C151.238 10.6762 150.644 11.2705 150.205 12.0717C149.765 12.847 149.533 13.7257 149.533 14.7336V16.7235H147.181V19.4629H149.533V31.0407H152.918V19.4887H157.983V26.8541C157.983 29.8777 159.405 31.4025 162.247 31.4025C162.713 31.4025 163.204 31.3249 163.669 31.2474C164.16 31.144 164.522 31.0148 164.728 30.9115L164.754 30.8856V28.1204L164.625 28.2237C164.418 28.353 164.237 28.4563 163.927 28.5339C163.669 28.6114 163.436 28.6372 163.255 28.6372C162.583 28.6372 162.118 28.4822 161.782 28.0945C161.472 27.7327 161.317 27.1383 161.317 26.2597V19.4887H164.754Z" fill="#191E2C"/>
</svg>
