<svg width="178" height="37" viewBox="0 0 178 37" fill="none" xmlns="http://www.w3.org/2000/svg">
<path d="M31.6954 20.367L32.4689 17.843V0.556381C23.4284 0.556381 22.4869 4.02341 22.4869 7.33327V26.3172C22.4869 27.3003 22.3914 28.3435 22.1926 29.3651C26.9864 28.4922 30.1136 25.5298 31.6954 20.367Z" fill="#0D0D0D"/>
<path d="M8.55381 4.50334H6.55603V2.53021H8.55381V4.50334ZM10.5493 7.48499H8.55381V5.51032H10.5493V7.48499ZM8.54225 9.96815H6.56758V7.99425H8.54225V9.96815ZM6.54601 12.9282H4.57211V10.9543H6.54601V12.9282ZM2.56432 2.53021H0.568848V0.535508H2.56432V2.53021Z" fill="#39A2E1"/>
<path d="M4.5621 14.9006H6.55526V19.2975H8.55381V11.9412H10.5493V26.3179C10.5493 33.1395 16.5203 36.4301 16.5203 36.4301C6.49054 36.4301 0.568848 30.3512 0.568848 22.2614V5.99413H2.56432V16.8744H4.5621V14.9006Z" fill="#39A2E1"/>
<mask id="mask0_552_4671" style="mask-type:luminance" maskUnits="userSpaceOnUse" x="11" y="20" width="22" height="17">
<path d="M17.92 30.4306C15.2573 30.3096 13.2087 29.6339 11.6216 28.6562C12.6964 33.3213 16.7158 35.6127 16.91 35.7213L18.0949 36.3746C27.1616 35.7691 32.4685 29.9159 32.4685 22.2623V20.6035C30.3135 27.6346 25.2979 30.7627 17.92 30.4306Z" fill="white"/>
</mask>
<g mask="url(#mask0_552_4671)">
<path d="M17.92 30.4306C15.2573 30.3096 13.2087 29.6339 11.6216 28.6562C12.6964 33.3213 16.7158 35.6127 16.91 35.7213L18.0949 36.3746C27.1616 35.7691 32.4685 29.9159 32.4685 22.2623V20.6035C30.3135 27.6346 25.2979 30.7627 17.92 30.4306Z" fill="url(#paint0_linear_552_4671)"/>
</g>
<path d="M6.26635 6.61462H4.17725V4.52368H6.26635V6.61462Z" fill="#39A2E1"/>
<path d="M126.979 23.3323C124.161 23.3323 121.963 22.552 120.448 21.0092C118.898 19.436 118.135 17.1571 118.18 14.2342L118.179 0.590958H118.208C118.963 0.590958 121.431 0.770243 121.431 3.07821L121.432 14.9514C121.518 18.4765 123.54 20.494 126.979 20.494C130.417 20.494 132.438 18.4739 132.523 14.9488V3.07821C132.523 0.770243 134.992 0.590958 135.75 0.590958H135.778L135.774 14.2368C135.822 17.1571 135.059 19.436 133.509 21.0104C131.991 22.5507 129.794 23.3323 126.979 23.3323ZM51.9017 23.3323C49.0823 23.3323 46.8855 22.552 45.3704 21.0092C43.82 19.436 43.0586 17.1571 43.1066 14.2342L43.1508 0.590958H43.1786C43.9349 0.590958 46.4032 0.770243 46.4032 3.07821L46.3577 14.9514C46.4423 18.4765 48.4624 20.494 51.9004 20.494C55.3421 20.494 57.3622 18.4739 57.4468 14.9488L57.4948 3.07821C57.4948 0.770243 59.9644 0.590958 60.7207 0.590958H60.7484L60.6979 14.2368C60.7459 17.1571 59.9821 19.436 58.4329 21.0104C56.9166 22.5507 54.7172 23.3323 51.9017 23.3323ZM103.893 20.494C98.3691 20.494 97.5446 15.1761 97.5446 12.0045C97.5446 9.45164 98.1608 3.41531 103.893 3.41531C109.415 3.41531 110.241 8.83424 110.241 12.0045C110.241 14.5575 109.621 20.494 103.893 20.494ZM116.366 22.8866C116.366 22.5432 116.313 21.3955 115.659 20.7049C115.31 20.3413 114.847 20.1569 114.269 20.1569H110.468C112.514 18.1621 113.642 15.2822 113.642 12.0045C113.642 6.53006 111.079 0.580858 103.893 0.580858C96.705 0.580858 94.1446 6.53006 94.1446 12.0045C94.1446 17.4778 96.7025 23.3272 103.879 23.3323L103.899 23.3297C104.451 23.3045 105.023 23.2452 105.604 23.153C105.951 23.1139 106.322 23.0482 106.679 22.9863L107.246 22.8853L116.366 22.8866ZM141.314 23.1189L141.311 3.07947C141.311 0.76898 143.78 0.590958 144.536 0.590958H144.565V22.749C144.565 22.8469 144.526 22.9408 144.457 23.0101C144.388 23.0794 144.294 23.1186 144.196 23.1189H141.314ZM86.6348 23.1959L86.631 3.07821C86.631 0.770243 89.1006 0.590958 89.8569 0.590958H89.8859V22.8247C89.8859 22.9226 89.8471 23.0165 89.778 23.0859C89.7089 23.1552 89.6151 23.1943 89.5172 23.1947L86.6348 23.1959ZM167.154 23.1189V3.02392C167.154 0.713428 169.614 0.535406 170.372 0.535406H170.401V22.749C170.401 22.8469 170.362 22.9408 170.293 23.0101C170.224 23.0794 170.13 23.1186 170.032 23.1189H167.154ZM147.766 0.646509V3.48223H154.416V23.1202H157.297C157.496 23.1202 157.662 22.956 157.667 22.7591V3.48223H163.725C163.923 3.48223 164.088 3.3181 164.091 3.1224V0.646509H147.766Z" fill="#4F4C4D"/>
<path d="M147.819 0.646568V3.48229H154.47V23.1202H157.352C157.552 23.1202 157.716 22.9561 157.718 22.7591V3.48229H163.779C163.978 3.48229 164.144 3.31816 164.147 3.12246V0.646568H147.819ZM74.8676 20.2731H69.691V12.9061H74.5229C76.0392 12.9061 78.582 13.531 78.582 16.5953C78.582 19.4373 76.394 20.2012 74.8663 20.2744M77.7071 6.80284C77.7071 7.99596 77.3409 8.9795 76.5872 9.46432C76.0519 9.81405 75.3044 10.0047 74.2716 10.0628H69.4701V3.529H74.0873C76.6806 3.63001 77.7058 4.69056 77.7058 6.80157M78.0821 11.4857L77.8043 11.4011L78.0707 11.2849C79.9418 10.4718 81.1059 8.57295 81.1059 6.59325C81.1059 2.94949 78.5265 0.694546 74.033 0.694546H66.219V23.1177H74.0317C74.2502 23.1215 74.4686 23.124 74.6908 23.124C75.591 23.124 76.7564 23.0735 77.7715 22.691C80.2335 21.7844 81.7612 19.5749 81.7612 17.1887C81.7612 15.137 80.7978 12.2899 78.0833 11.4832M43.5471 29.8699H44.7491L47.7224 34.6676H47.7401V29.8699H48.8259V36.3809H47.6214L44.6582 31.5933H44.6304V36.3809H43.5471V29.8699ZM61.0728 29.8699H65.7607V30.8547H62.2129V32.5604H65.4955V33.4897H62.2129V35.3949H65.8238V36.3809H61.0728V29.8699ZM77.2185 29.8699H82.4909V30.8547H80.4203V36.3809H79.2802V30.8547H77.2185V29.8699ZM93.7871 29.8699H94.9449L96.1216 34.8494H96.1393L97.4523 29.8699H98.6189L99.8966 34.8494H99.9143L101.126 29.8699H102.287L100.49 36.3809H99.331L98.0268 31.4014H98.0091L96.6758 36.3809H95.5017L93.7871 29.8699ZM116.545 30.6451C116.233 30.6369 115.924 30.7091 115.648 30.8547C115.402 30.9901 115.19 31.1822 115.032 31.4153C114.87 31.6594 114.752 31.9298 114.683 32.2145C114.529 32.8121 114.529 33.4387 114.683 34.0364C114.757 34.3356 114.876 34.6007 115.032 34.8356C115.191 35.0691 115.397 35.2573 115.648 35.3961C115.924 35.5417 116.233 35.6139 116.545 35.6057C116.895 35.6057 117.191 35.5363 117.444 35.3961C117.696 35.2573 117.901 35.0691 118.061 34.8356C118.218 34.6007 118.335 34.3356 118.41 34.0364C118.488 33.7397 118.526 33.4366 118.526 33.1248C118.526 32.8155 118.488 32.5112 118.41 32.2157C118.341 31.9307 118.223 31.6599 118.061 31.4153C117.902 31.182 117.69 30.9899 117.443 30.8547C117.19 30.7158 116.893 30.6451 116.545 30.6451ZM116.546 29.7133C117.032 29.7133 117.468 29.8055 117.854 29.9886C118.23 30.1627 118.564 30.4144 118.835 30.7272C119.103 31.0365 119.309 31.3989 119.45 31.813C119.595 32.2354 119.668 32.6794 119.665 33.126C119.665 33.5932 119.594 34.0351 119.45 34.448C119.317 34.8462 119.108 35.2149 118.835 35.5338C118.564 35.8453 118.23 36.095 117.854 36.266C117.443 36.4507 116.997 36.5425 116.546 36.535C116.06 36.535 115.624 36.4466 115.237 36.266C114.862 36.0946 114.528 35.8449 114.257 35.5338C113.992 35.2219 113.785 34.8621 113.642 34.448C113.5 34.0338 113.428 33.5932 113.428 33.1248C113.428 32.6627 113.5 32.2246 113.642 31.8117C113.785 31.3989 113.992 31.0365 114.257 30.7272C114.54 30.4 114.892 30.1394 115.288 29.9641C115.684 29.7889 116.113 29.7032 116.546 29.7133ZM132.731 32.8344H134.601C134.967 32.8344 135.241 32.7485 135.432 32.5743C135.618 32.4013 135.713 32.1412 135.713 31.7953C135.72 31.622 135.689 31.4493 135.622 31.289C135.568 31.1662 135.481 31.0606 135.371 30.9835C135.262 30.9085 135.137 30.8585 135.006 30.837C134.866 30.8123 134.724 30.8005 134.582 30.8017H132.731V32.8344ZM131.59 29.8699H134.701C135.418 29.8699 135.955 30.0252 136.317 30.3358C136.673 30.6464 136.852 31.0782 136.852 31.6299C136.861 31.8933 136.814 32.1556 136.716 32.4001C136.639 32.5817 136.532 32.7484 136.397 32.8925C136.295 33.0037 136.172 33.0949 136.036 33.1614C135.952 33.203 135.865 33.2401 135.776 33.2725V33.2902C135.885 33.3052 135.992 33.3358 136.092 33.3811C136.212 33.4355 136.32 33.5146 136.408 33.6134C136.502 33.7207 136.584 33.8583 136.647 34.0288C136.712 34.198 136.743 34.4113 136.743 34.6676C136.743 35.0502 136.771 35.3987 136.832 35.7105C136.887 36.0249 136.978 36.2484 137.099 36.3797H135.876C135.791 36.2391 135.739 36.0803 135.727 35.9163C135.711 35.7526 135.704 35.5883 135.704 35.4239C135.704 35.126 135.685 34.8684 135.649 34.6538C135.621 34.4617 135.553 34.2778 135.448 34.1146C135.351 33.9719 135.212 33.8626 135.05 33.8015C134.845 33.728 134.627 33.6937 134.409 33.7005H132.731V36.3809H131.59V29.8699ZM148.941 29.8699H150.08V32.8331L152.981 29.8699H154.385L151.784 32.4683L154.567 36.3809H153.144L151.01 33.2712L150.08 34.1917V36.3809H148.941V29.8699ZM166.631 34.2106C166.631 34.4606 166.674 34.674 166.757 34.8494C166.839 35.0211 166.961 35.1698 167.114 35.2825C167.266 35.3961 167.441 35.4782 167.64 35.5287C167.837 35.5792 168.051 35.607 168.281 35.607C168.532 35.607 168.743 35.5767 168.92 35.5186C169.097 35.4605 169.239 35.386 169.349 35.2951C169.452 35.2118 169.534 35.1048 169.586 34.9833C169.634 34.8633 169.658 34.7434 169.658 34.6209C169.658 34.3709 169.603 34.1866 169.49 34.0692C169.389 33.9571 169.262 33.8709 169.121 33.8179C168.857 33.7231 168.588 33.643 168.315 33.578C168.006 33.5023 167.629 33.4025 167.177 33.2788C166.932 33.22 166.698 33.1237 166.482 32.9935C166.312 32.8882 166.162 32.7535 166.039 32.5958C165.933 32.4568 165.854 32.2992 165.806 32.1311C165.761 31.967 165.738 31.8004 165.738 31.6299C165.73 31.3451 165.794 31.0628 165.924 30.8094C166.054 30.5559 166.247 30.3396 166.483 30.1805C166.71 30.0214 166.965 29.9052 167.252 29.8282C167.537 29.7525 167.826 29.7146 168.118 29.7146C168.459 29.7146 168.78 29.7588 169.08 29.8472C169.382 29.9355 169.646 30.0669 169.874 30.2436C170.1 30.4204 170.282 30.6363 170.416 30.8964C170.555 31.1749 170.624 31.483 170.617 31.794H169.477C169.446 31.3749 169.302 31.0782 169.047 30.9052C168.792 30.7322 168.467 30.6451 168.071 30.6451C167.938 30.6451 167.801 30.659 167.661 30.6855C167.528 30.711 167.399 30.757 167.28 30.8219C167.165 30.8857 167.065 30.9746 166.989 31.082C166.911 31.2043 166.872 31.3472 166.876 31.4923C166.876 31.7233 166.949 31.9051 167.093 32.0352C167.234 32.1652 167.421 32.265 167.652 32.3319C167.677 32.3382 167.772 32.3622 167.94 32.4102L168.499 32.5592L169.105 32.7195C169.305 32.7713 169.446 32.8091 169.53 32.8331C169.744 32.9 169.93 32.9922 170.088 33.1071C170.245 33.222 170.377 33.3546 170.484 33.5036C170.59 33.6513 170.671 33.8116 170.72 33.9833C170.773 34.1525 170.799 34.3217 170.799 34.4921C170.809 34.8183 170.732 35.1413 170.575 35.4277C170.431 35.6817 170.229 35.8986 169.987 36.0615C169.733 36.2291 169.453 36.3509 169.157 36.4213C168.847 36.4972 168.528 36.5354 168.209 36.535C167.839 36.535 167.489 36.4908 167.161 36.3974C166.85 36.3165 166.558 36.1749 166.302 35.9807C166.055 35.7866 165.855 35.5382 165.719 35.2547C165.574 34.958 165.497 34.6108 165.491 34.2093L166.631 34.2106ZM174.522 2.56188H174.916C175.249 2.56188 175.553 2.54546 175.553 2.16291C175.553 1.84095 175.276 1.79171 175.022 1.79171H174.523L174.522 2.56188ZM174.147 1.48617H175.084C175.659 1.48617 175.93 1.71344 175.93 2.17932C175.93 2.61743 175.652 2.8005 175.293 2.83838L175.986 3.90903H175.581L174.922 2.86616H174.523V3.90903H174.147V1.48617ZM174.955 4.46835C175.914 4.46835 176.656 3.70324 176.656 2.68813C176.656 1.69702 175.914 0.93317 174.955 0.93317C173.985 0.93317 173.243 1.69702 173.243 2.68813C173.243 3.70324 173.985 4.46835 174.955 4.46835ZM174.955 0.628891C176.086 0.628891 177.033 1.52026 177.033 2.6894C177.033 3.88126 176.086 4.77263 174.955 4.77263C173.819 4.77263 172.867 3.88126 172.867 2.6894C172.867 1.52026 173.819 0.628891 174.955 0.628891Z" fill="#4F4C4D"/>
<defs>
<linearGradient id="paint0_linear_552_4671" x1="11.6216" y1="28.4891" x2="32.4677" y2="28.4891" gradientUnits="userSpaceOnUse">
<stop stop-color="#656263"/>
<stop offset="1" stop-color="#A7A5A6"/>
</linearGradient>
</defs>
</svg>
